<?xml version="1.0" encoding="UTF-8" standalone="no"?>
<svg
   xmlns:dc="http://purl.org/dc/elements/1.1/"
   xmlns:cc="http://creativecommons.org/ns#"
   xmlns:rdf="http://www.w3.org/1999/02/22-rdf-syntax-ns#"
   xmlns:svg="http://www.w3.org/2000/svg"
   xmlns="http://www.w3.org/2000/svg"
   xmlns:sodipodi="http://sodipodi.sourceforge.net/DTD/sodipodi-0.dtd"
   xmlns:inkscape="http://www.inkscape.org/namespaces/inkscape"
   viewBox="0 0 108 127"
   width="108"
   height="127"
   version="1.1"
   id="svg89"
   sodipodi:docname="eman.svg"
   inkscape:version="0.92.4 5da689c313, 2019-01-14">
  <metadata
     id="metadata95">
    <rdf:RDF>
      <cc:Work
         rdf:about="">
        <dc:format>image/svg+xml</dc:format>
        <dc:type
           rdf:resource="http://purl.org/dc/dcmitype/StillImage" />
        <dc:title></dc:title>
      </cc:Work>
    </rdf:RDF>
  </metadata>
  <defs
     id="defs93" />
  <sodipodi:namedview
     pagecolor="#ffffff"
     bordercolor="#666666"
     borderopacity="1"
     objecttolerance="10"
     gridtolerance="10"
     guidetolerance="10"
     inkscape:pageopacity="0"
     inkscape:pageshadow="2"
     inkscape:window-width="1366"
     inkscape:window-height="700"
     id="namedview91"
     showgrid="false"
     inkscape:zoom="3.7165354"
     inkscape:cx="34.178363"
     inkscape:cy="57.528112"
     inkscape:window-x="0"
     inkscape:window-y="0"
     inkscape:window-maximized="1"
     inkscape:current-layer="svg89" />
  <style
     id="style80">
		tspan { white-space:pre }
		.shp0 { fill: #abcaf7 } 
	</style>
  <g
     id="Группа 5">
    <g
       id="Группа 4"
       style="opacity: 0.2">
      <path
         id="Эллипс 1 копия"
         class="shp0"
         d="M53,75c-6.74,-3.01 -24.39,-8.7 -32.19,-15.83c-0.06,-2.65 -0.02,-17.14 0,-22c0,-1.32 1.23,-2.11 3.23,-2.57c8.42,-0.06 21.93,0.57 29.07,0.01c0.01,-10.16 -0.01,-21.33 -0.09,-33.57c-0.58,0.02 -2.36,0.06 -2.93,0.1c-24.47,1.84 -43.75,22.27 -43.75,47.19c0,24.95 19.33,45.4 43.85,47.2c0.59,0.04 2.39,0.08 2.99,0.1c-0.13,-5.82 -0.17,-12.66 -0.17,-20.62z" />
      <path
         id="Эллипс 1 копия 2"
         class="shp0"
         d="M54.3,95.65c0.6,-0.02 2.4,-0.05 2.99,-0.1c24.48,-1.8 43.77,-22.26 43.77,-47.23c0,-24.94 -19.25,-45.38 -43.68,-47.22c-0.57,-0.04 -2.35,-0.08 -2.93,-0.1c-0.09,12.25 -0.1,23.43 -0.09,33.6c7.13,0.56 20.62,-0.06 29.02,-0.01c1.99,0.46 3.22,1.25 3.22,2.57c0.02,4.87 0.06,19.37 0,22.02c-7.79,7.13 -25.41,12.82 -32.13,15.84c0,7.96 -0.04,14.81 -0.17,20.63z" />
      <path
         id="Прямоугольник 1"
         class="shp0"
         d="M36.83,117.35c1.63,4.33 6,9.65 17.17,9.65c10.26,0 15.09,-4.45 17.25,-8.37c-3.25,5.9 10.81,-27.8 10.81,-27.8c0,0 -14.4,7.54 -28.36,7.54c-13.8,0 -27.15,-7.54 -27.15,-7.54c0,0 12.7,32.94 10.28,26.53z" />
      <path
         id="Эллипс 2"
         class="shp0"
         d="M0,48.02c0,8.57 3.09,15.37 4.68,15.37c1.58,0 -0.15,-6.8 -0.15,-15.37c0,-8.57 1.73,-15.67 0.15,-15.67c-1.58,0 -4.68,7.1 -4.68,15.67z" />
      <path
         id="Эллипс 2 копия"
         class="shp0"
         d="M103.25,32.35c-1.61,0 0.15,7.1 0.15,15.67c0,8.57 -1.76,15.37 -0.15,15.37c1.61,0 4.75,-6.8 4.75,-15.37c0,-8.57 -3.14,-15.67 -4.75,-15.67z" />
    </g>
  </g>
  <style
     id="style157">
		tspan { white-space:pre }
		.shp0 { opacity: 0.2;fill: #66b5f1 } 
	</style>
  <style
     id="style213">
		tspan { white-space:pre }
		.shp0 { opacity: 0.2;fill: #66b5f1 } 
	</style>
  <g
     id="Группа 5-3"
     transform="matrix(-1,0,0,0.99987799,84.385108,40.819656)"
     style="opacity:1;fill:#aac8f5;fill-opacity:1">
    <path
       d="M 9.48,0.65 C 9.03,0.72 8.59,0.81 8.16,0.93 7.74,1.04 7.33,1.17 6.94,1.32 3.13,2.78 0.64,5.95 0.24,9.45 -0.08,17.62 5.61,21.22 12.96,22.06 20.31,22.9 26.75,19.35 27.35,14.14 27.95,8.93 20.76,1.42 13.41,0.58 12.02,0.42 10.7,0.45 9.48,0.65 Z"
       class="shp0"
       id="Эллипс 8 копия 6"
       inkscape:connector-curvature="0"
       style="opacity:0.2;fill:#aac8f5;fill-opacity:1" />
  </g>
  <g
     id="Группа 5-6"
     transform="matrix(-1,0,0,1,50.862862,40.806709)"
     style="fill:#aac8f5;fill-opacity:1">
    <path
       d="M 14.68,0.59 C 7.33,1.43 0.14,8.93 0.74,14.15 1.34,19.36 7.79,22.91 15.13,22.07 22.48,21.23 28.17,17.63 27.85,9.46 27.44,5.96 24.96,2.79 21.15,1.33 20.76,1.18 20.35,1.05 19.93,0.94 19.5,0.83 19.06,0.73 18.61,0.66 17.39,0.47 16.07,0.43 14.68,0.59 Z"
       class="shp0"
       id="Эллипс 8 копия 7"
       inkscape:connector-curvature="0"
       style="opacity:0.2;fill:#aac8f5;fill-opacity:1" />
  </g>
</svg>
