<svg xmlns="http://www.w3.org/2000/svg" viewBox="0 0 93 112" width="93" height="112">
	<defs>
		<linearGradient id="grd1" gradientUnits="userSpaceOnUse"  x1="33.092" y1="50.819" x2="33.092" y2="38.48">
			<stop offset="0" stop-color="#8ab5e6"  />
			<stop offset="0.463" stop-color="#c7d0e4"  />
			<stop offset="1" stop-color="#709ce3"  />
		</linearGradient>
		<linearGradient id="grd2" gradientUnits="userSpaceOnUse"  x1="58.037" y1="50.819" x2="58.037" y2="38.48">
			<stop offset="0" stop-color="#8ab5e6"  />
			<stop offset="0.463" stop-color="#c7d0e4"  />
			<stop offset="1" stop-color="#709ce3"  />
		</linearGradient>
	</defs>
	<style>
		tspan { white-space:pre }
		.shp0 { fill: #abcaf7 } 
		.shp1 { opacity: 0.102;fill: #66b5f1 } 
		.shp2 { fill: #66b5f1;stroke: url(#grd1);stroke-width: 3 } 
		.shp3 { fill: #66b5f1;stroke: url(#grd2);stroke-width: 3 } 
	</style>
	<g id="-e- level 1">
		<g id="Группа 4">
			<path id="Эллипс 1 копия" class="shp0" d="M45.26,62.21c-4.99,-2.25 -18.06,-6.49 -23.84,-11.81c-0.04,-1.98 -0.01,-12.79 0,-16.42c0,-0.98 0.91,-1.58 2.39,-1.92c6.24,-0.04 16.25,0.42 21.53,0.01c0.01,-7.58 0,-15.91 -0.07,-25.05c-0.43,0.02 -1.75,0.04 -2.17,0.07c-18.13,1.37 -32.41,16.61 -32.41,35.21c0,18.62 14.32,33.87 32.48,35.21c0.44,0.03 1.77,0.06 2.22,0.07c-0.1,-4.34 -0.13,-9.44 -0.13,-15.38z" />
			<path id="Эллипс 1 копия 2" class="shp0" d="M46.22,77.61c0.44,-0.02 1.77,-0.04 2.21,-0.07c18.13,-1.34 32.43,-16.6 32.43,-35.23c0,-18.61 -14.26,-33.85 -32.36,-35.23c-0.42,-0.03 -1.74,-0.06 -2.17,-0.07c-0.06,9.14 -0.08,17.48 -0.07,25.06c5.28,0.42 15.27,-0.05 21.5,-0.01c1.48,0.34 2.38,0.93 2.39,1.92c0.01,3.63 0.04,14.45 0,16.43c-5.77,5.32 -18.82,9.56 -23.8,11.81c0,5.94 -0.03,11.05 -0.13,15.39z" />
			<path id="Прямоугольник 1" class="shp0" d="M33.28,93.8c1.21,3.23 4.44,7.2 12.72,7.2c7.6,0 11.18,-3.32 12.78,-6.24c-2.41,4.4 8.01,-20.74 8.01,-20.74c0,0 -10.67,5.62 -21.01,5.62c-10.22,0 -20.11,-5.62 -20.11,-5.62c0,0 9.4,24.57 7.62,19.79z" />
			<path id="Эллипс 2" class="shp0" d="M6,42.08c0,6.4 2.29,11.47 3.46,11.47c1.17,0 -0.11,-5.07 -0.11,-11.47c0,-6.4 1.28,-11.69 0.11,-11.69c-1.17,0 -3.46,5.3 -3.46,11.69z" />
			<path id="Эллипс 2 копия" class="shp0" d="M82.48,30.39c-1.19,0 0.11,5.3 0.11,11.69c0,6.4 -1.3,11.47 -0.11,11.47c1.19,0 3.52,-5.07 3.52,-11.47c0,-6.4 -2.33,-11.69 -3.52,-11.69z" />
		</g>
		<g id="Группа 4 копия">
			<path id="Эллипс 1 копия" class="shp0" d="M45.26,62.21c-4.99,-2.25 -18.06,-6.49 -23.84,-11.81c-0.04,-1.98 -0.01,-12.79 0,-16.42c0,-0.98 0.91,-1.58 2.39,-1.92c6.24,-0.04 16.25,0.42 21.53,0.01c0.01,-7.58 0,-15.91 -0.07,-25.05c-0.43,0.02 -1.75,0.04 -2.17,0.07c-18.13,1.37 -32.41,16.61 -32.41,35.21c0,18.62 14.32,33.87 32.48,35.21c0.44,0.03 1.77,0.06 2.22,0.07c-0.1,-4.34 -0.13,-9.44 -0.13,-15.38z" />
			<path id="Эллипс 1 копия 2" class="shp0" d="M46.22,77.61c0.44,-0.02 1.77,-0.04 2.21,-0.07c18.13,-1.34 32.43,-16.6 32.43,-35.23c0,-18.61 -14.26,-33.85 -32.36,-35.23c-0.42,-0.03 -1.74,-0.06 -2.17,-0.07c-0.06,9.14 -0.08,17.48 -0.07,25.06c5.28,0.42 15.27,-0.05 21.5,-0.01c1.48,0.34 2.38,0.93 2.39,1.92c0.01,3.63 0.04,14.45 0,16.43c-5.77,5.32 -18.82,9.56 -23.8,11.81c0,5.94 -0.03,11.05 -0.13,15.39z" />
			<path id="Прямоугольник 1" class="shp0" d="M33.28,93.8c1.21,3.23 4.44,7.2 12.72,7.2c7.6,0 11.18,-3.32 12.78,-6.24c-2.41,4.4 8.01,-20.74 8.01,-20.74c0,0 -10.67,5.62 -21.01,5.62c-10.22,0 -20.11,-5.62 -20.11,-5.62c0,0 9.4,24.57 7.62,19.79z" />
			<path id="Эллипс 2" class="shp0" d="M6,42.08c0,6.4 2.29,11.47 3.46,11.47c1.17,0 -0.11,-5.07 -0.11,-11.47c0,-6.4 1.28,-11.69 0.11,-11.69c-1.17,0 -3.46,5.3 -3.46,11.69z" />
			<path id="Эллипс 2 копия" class="shp0" d="M82.48,30.39c-1.19,0 0.11,5.3 0.11,11.69c0,6.4 -1.3,11.47 -0.11,11.47c1.19,0 3.52,-5.07 3.52,-11.47c0,-6.4 -2.33,-11.69 -3.52,-11.69z" />
		</g>
		<path id="Эллипс 8 копия 6" class="shp1" d="M30.06,36.58c-0.34,0.05 -0.66,0.12 -0.98,0.21c-0.31,0.08 -0.61,0.18 -0.9,0.29c-2.82,1.09 -4.67,3.45 -4.97,6.07c-0.24,6.09 3.98,8.78 9.42,9.4c5.44,0.63 10.21,-2.02 10.66,-5.91c0.45,-3.89 -4.88,-9.49 -10.32,-10.11c-1.03,-0.12 -2.01,-0.09 -2.91,0.05z" />
		<path id="Эллипс 8 копия 7" class="shp1" d="M58.35,36.53c-5.44,0.63 -10.77,6.22 -10.32,10.11c0.45,3.89 5.22,6.53 10.66,5.91c5.44,-0.63 9.66,-3.31 9.42,-9.4c-0.3,-2.61 -2.14,-4.98 -4.97,-6.07c-0.29,-0.11 -0.59,-0.21 -0.9,-0.29c-0.32,-0.08 -0.64,-0.15 -0.98,-0.21c-0.91,-0.14 -1.88,-0.17 -2.91,-0.05z" />
		<path id="Эллипс 8 копия 8" class="shp2" d="M30.65,38.58c-0.26,0.04 -0.5,0.09 -0.75,0.16c-0.24,0.06 -0.47,0.14 -0.69,0.22c-2.16,0.83 -3.56,2.63 -3.79,4.62c-0.18,4.65 3.04,6.69 7.19,7.17c4.15,0.48 7.8,-1.54 8.14,-4.5c0.34,-2.96 -3.73,-7.23 -7.88,-7.71c-0.79,-0.09 -1.53,-0.07 -2.22,0.04z" />
		<path id="Эллипс 8 копия 9" class="shp3" d="M58.26,38.54c-4.15,0.48 -8.22,4.74 -7.88,7.71c0.34,2.96 3.99,4.98 8.14,4.5c4.15,-0.48 7.37,-2.52 7.19,-7.17c-0.23,-1.99 -1.64,-3.79 -3.79,-4.62c-0.22,-0.09 -0.45,-0.16 -0.69,-0.22c-0.24,-0.06 -0.49,-0.12 -0.75,-0.16c-0.69,-0.11 -1.44,-0.13 -2.22,-0.04z" />
	</g>
</svg>